<?xml version="1.0" encoding="utf-8"?>
<!-- Generator: Adobe Illustrator 19.2.0, SVG Export Plug-In . SVG Version: 6.00 Build 0)  -->
<svg version="1.1" id="Layer_1" xmlns="http://www.w3.org/2000/svg" xmlns:xlink="http://www.w3.org/1999/xlink" x="0px" y="0px"
	 viewBox="0 0 400 512" style="enable-background:new 0 0 400 512;" xml:space="preserve">
<path d="M354.6,74.1l-4.8-6l-5.5-5.8C306.2,22.1,254.9,0,199.7,0C144.5,0,93.2,22.1,55.1,62.3l-5.3,5.6l-5,6.2
	C16.2,109.4,0.4,153.9,0.4,199.3c0,45.4,15.8,89.9,44.3,125.2l0.4,0.6v187L107,375.6l1.9,1c24.7,12.7,51.2,20,78.8,21.6
	c1.4,0.1,2.9,0.2,4.3,0.2c5.6,0.2,9.6,0.2,15.3,0c1.4-0.1,2.9-0.1,4.3-0.2c27.6-1.6,54.1-8.9,78.8-21.6l1.9-1L354.1,512V325l0.4-0.5
	c28.6-35.3,44.4-79.8,44.4-125.2C398.9,153.9,383.2,109.4,354.6,74.1z M45.2,96.8v204.9l-3.7-6c-17.8-29-27.1-62.4-27.1-96.5
	c0-34.1,9.4-67.4,27.1-96.5L45.2,96.8z M340.2,111.9V310h-89.8L340.2,111.9z M333.4,327.3c-9.8,10.3-20.9,19.4-32.8,27.2
	c-5,3.3-10.3,6.4-15.8,9.2c-20.2,10.5-41.9,17.1-64.4,19.7l-3.5,0.4l27.1-59.8h92.6L333.4,327.3z M340.2,340.5v106.8l-35.7-78.7
	l1.5-0.9c11.1-7,21.5-15.1,30.8-24L340.2,340.5z M62.6,343.7c9.3,8.9,19.7,16.9,30.8,24l1.5,0.9l-35.7,78.7V340.5L62.6,343.7z
	 M182.4,383.8l-3.5-0.4c-22.5-2.5-44.2-9.1-64.4-19.7c-5.5-2.9-10.8-6-15.8-9.2c-11.9-7.8-22.9-16.9-32.8-27.2l-3.2-3.4h92.6
	L182.4,383.8z M228.7,324l-27.4,60.5h-3.2L170.6,324H228.7z M149,310H59.2V111.9L149,310z M59.4,78.4l0.8-1
	C95.5,37.1,146.3,14,199.7,14c53.4,0,104.2,23.1,139.5,63.4l0.8,1L235.1,310h-70.8L59.4,78.4z M385,199.3c0,34.1-9.4,67.4-27.2,96.5
	l-3.7,6V96.8l3.7,6C375.6,131.8,385,165.2,385,199.3z"/>
</svg>
